<svg xmlns="http://www.w3.org/2000/svg" xmlns:xlink="http://www.w3.org/1999/xlink" width="500" zoomAndPan="magnify" viewBox="0 0 375 374.999991" height="500" preserveAspectRatio="xMidYMid meet" version="1.0"><defs><g/><clipPath id="0e3f3d728f"><rect x="0" width="200" y="0" height="90"/></clipPath><clipPath id="16a25f2e42"><rect x="0" width="101" y="0" height="90"/></clipPath><clipPath id="447fbec693"><path d="M 45 0.0390625 L 48 0.0390625 L 48 9 L 45 9 Z M 45 0.0390625 " clip-rule="nonzero"/></clipPath><clipPath id="33338e14e0"><rect x="0" width="171" y="0" height="11"/></clipPath></defs><g transform="matrix(1, 0, 0, 1, 34, 126)"><g clip-path="url(#0e3f3d728f)"><g fill="#000000" fill-opacity="1"><g transform="translate(1.245014, 62.871114)"><g><path d="M 106.1875 -20.765625 C 105.414062 -20.691406 104.640625 -20.625 103.859375 -20.5625 C 103.140625 -20.488281 102.414062 -20.421875 101.6875 -20.359375 C 96.457031 -19.816406 91.25 -19.113281 86.0625 -18.25 C 80.101562 -17.3125 74.15625 -16.1875 68.21875 -14.875 C 67.175781 -14.644531 66.21875 -14.226562 65.34375 -13.625 C 58.257812 -8.90625 50.953125 -4.660156 43.421875 -0.890625 C 35.898438 2.867188 28.179688 6.238281 20.265625 9.21875 C 16.816406 10.570312 13.300781 11.707031 9.71875 12.625 C 8.070312 13.0625 6.390625 13.332031 4.671875 13.4375 C 4.453125 13.457031 4.226562 13.46875 4 13.46875 C 3.226562 13.5 2.492188 13.378906 1.796875 13.109375 C 0.710938 12.628906 0.382812 11.835938 0.8125 10.734375 C 1.15625 9.941406 1.65625 9.242188 2.3125 8.640625 C 3.59375 7.378906 5.007812 6.300781 6.5625 5.40625 C 10.394531 3.144531 14.363281 1.15625 18.46875 -0.5625 C 22.53125 -2.320312 26.648438 -3.9375 30.828125 -5.40625 C 30.941406 -5.414062 31.039062 -5.445312 31.125 -5.5 C 31.257812 -5.5625 31.410156 -5.617188 31.578125 -5.671875 C 32.179688 -5.847656 32.585938 -6.253906 32.796875 -6.890625 C 33.148438 -7.835938 33.523438 -8.773438 33.921875 -9.703125 C 33.972656 -9.859375 34.035156 -10.03125 34.109375 -10.21875 C 34.960938 -12.320312 35.832031 -14.445312 36.71875 -16.59375 C 38.363281 -20.632812 40.007812 -24.6875 41.65625 -28.75 C 42.738281 -31.300781 43.609375 -33.929688 44.265625 -36.640625 C 44.304688 -36.878906 44.382812 -37.125 44.5 -37.375 C 44.695312 -37.675781 44.96875 -37.78125 45.3125 -37.6875 C 45.445312 -37.726562 45.597656 -37.726562 45.765625 -37.6875 C 45.890625 -37.664062 45.992188 -37.609375 46.078125 -37.515625 C 46.171875 -37.421875 46.21875 -37.304688 46.21875 -37.171875 C 46.25 -36.765625 46.226562 -36.367188 46.15625 -35.984375 C 45.664062 -33.597656 44.929688 -31.28125 43.953125 -29.03125 C 42.285156 -24.96875 40.601562 -20.894531 38.90625 -16.8125 C 38.238281 -15.132812 37.554688 -13.460938 36.859375 -11.796875 C 36.722656 -11.484375 36.585938 -11.164062 36.453125 -10.84375 C 36.046875 -9.832031 35.625 -8.804688 35.1875 -7.765625 C 35.164062 -7.722656 35.15625 -7.691406 35.15625 -7.671875 C 35.082031 -7.554688 35.039062 -7.445312 35.03125 -7.34375 C 35.019531 -7.25 35.070312 -7.15625 35.1875 -7.0625 C 35.207031 -7.039062 35.242188 -7.019531 35.296875 -7 C 35.335938 -7.019531 35.394531 -7.039062 35.46875 -7.0625 C 35.488281 -7.0625 35.507812 -7.0625 35.53125 -7.0625 C 36.59375 -7.394531 37.644531 -7.734375 38.6875 -8.078125 C 40.53125 -8.679688 42.363281 -9.28125 44.1875 -9.875 C 50.6875 -11.875 57.242188 -13.625 63.859375 -15.125 C 64.648438 -15.289062 65.367188 -15.601562 66.015625 -16.0625 C 67.890625 -17.394531 69.734375 -18.757812 71.546875 -20.15625 C 73.367188 -21.550781 75.113281 -23.03125 76.78125 -24.59375 C 78.601562 -26.238281 80.257812 -28.050781 81.75 -30.03125 C 82.632812 -31.1875 83.300781 -32.460938 83.75 -33.859375 C 84.363281 -35.992188 83.96875 -37.878906 82.5625 -39.515625 C 82.050781 -40.117188 81.472656 -40.632812 80.828125 -41.0625 C 80.179688 -41.5 79.5 -41.875 78.78125 -42.1875 C 76.320312 -43.25 73.757812 -43.925781 71.09375 -44.21875 C 68.769531 -44.507812 66.445312 -44.65625 64.125 -44.65625 C 62 -44.65625 59.878906 -44.566406 57.765625 -44.390625 C 52.328125 -43.960938 46.945312 -43.132812 41.625 -41.90625 C 37.988281 -41.125 34.425781 -40.144531 30.9375 -38.96875 C 27.457031 -37.789062 24.070312 -36.3125 20.78125 -34.53125 C 19.5625 -33.90625 18.378906 -33.21875 17.234375 -32.46875 C 16.097656 -31.726562 15.015625 -30.914062 13.984375 -30.03125 C 13.191406 -29.3125 12.457031 -28.546875 11.78125 -27.734375 C 11.28125 -27.191406 10.914062 -26.5625 10.6875 -25.84375 C 10.332031 -24.726562 10.570312 -23.78125 11.40625 -23 C 11.925781 -22.5 12.523438 -22.128906 13.203125 -21.890625 C 14.347656 -21.410156 15.539062 -21.128906 16.78125 -21.046875 C 17.4375 -20.992188 18.101562 -20.957031 18.78125 -20.9375 C 19.6875 -20.894531 20.585938 -20.847656 21.484375 -20.796875 C 22.210938 -20.753906 22.925781 -20.6875 23.625 -20.59375 C 23.71875 -20.570312 23.796875 -20.523438 23.859375 -20.453125 C 23.929688 -20.390625 23.988281 -20.3125 24.03125 -20.21875 C 24.050781 -20.039062 24.003906 -19.921875 23.890625 -19.859375 C 23.773438 -19.804688 23.660156 -19.789062 23.546875 -19.8125 L 23.34375 -19.8125 C 23.28125 -19.8125 23.210938 -19.8125 23.140625 -19.8125 C 22.484375 -19.84375 21.84375 -19.859375 21.21875 -19.859375 C 21.019531 -19.859375 20.816406 -19.859375 20.609375 -19.859375 C 20.296875 -19.859375 19.96875 -19.859375 19.625 -19.859375 L 19.59375 -19.859375 C 18.675781 -19.859375 17.765625 -19.878906 16.859375 -19.921875 C 15.953125 -19.960938 15.050781 -20.070312 14.15625 -20.25 C 13.132812 -20.476562 12.148438 -20.816406 11.203125 -21.265625 C 10.679688 -21.515625 10.195312 -21.816406 9.75 -22.171875 C 8.394531 -23.304688 8.054688 -24.71875 8.734375 -26.40625 C 9.203125 -27.507812 9.878906 -28.484375 10.765625 -29.328125 C 11.910156 -30.515625 13.171875 -31.585938 14.546875 -32.546875 C 18.296875 -35.109375 22.28125 -37.179688 26.5 -38.765625 C 29.90625 -40.078125 33.359375 -41.175781 36.859375 -42.0625 C 40.367188 -42.957031 43.921875 -43.695312 47.515625 -44.28125 C 53.035156 -45.257812 58.597656 -45.757812 64.203125 -45.78125 C 64.378906 -45.78125 64.554688 -45.78125 64.734375 -45.78125 C 66.859375 -45.78125 68.972656 -45.671875 71.078125 -45.453125 C 73.191406 -45.234375 75.269531 -44.832031 77.3125 -44.25 C 79.007812 -43.78125 80.617188 -43.101562 82.140625 -42.21875 C 82.921875 -41.75 83.625 -41.1875 84.25 -40.53125 C 86.332031 -38.363281 86.832031 -35.835938 85.75 -32.953125 C 85.257812 -31.660156 84.582031 -30.460938 83.71875 -29.359375 C 82.132812 -27.273438 80.375 -25.367188 78.4375 -23.640625 C 76.070312 -21.492188 73.601562 -19.472656 71.03125 -17.578125 C 70.957031 -17.515625 70.863281 -17.457031 70.75 -17.40625 C 70.613281 -17.3125 70.476562 -17.207031 70.34375 -17.09375 C 70.21875 -16.988281 70.128906 -16.835938 70.078125 -16.640625 C 70.171875 -16.566406 70.253906 -16.53125 70.328125 -16.53125 C 70.429688 -16.550781 70.539062 -16.570312 70.65625 -16.59375 C 70.769531 -16.644531 70.882812 -16.679688 71 -16.703125 C 77.65625 -18.054688 84.332031 -19.175781 91.03125 -20.0625 C 94.257812 -20.457031 97.472656 -20.828125 100.671875 -21.171875 C 101.773438 -21.273438 102.867188 -21.382812 103.953125 -21.5 C 104.335938 -21.550781 104.734375 -21.578125 105.140625 -21.578125 C 105.523438 -21.597656 105.90625 -21.5625 106.28125 -21.46875 C 106.332031 -21.445312 106.378906 -21.40625 106.421875 -21.34375 C 106.472656 -21.289062 106.5 -21.242188 106.5 -21.203125 C 106.519531 -21.066406 106.492188 -20.960938 106.421875 -20.890625 C 106.359375 -20.828125 106.28125 -20.785156 106.1875 -20.765625 Z M 29.40625 3.9375 C 29.40625 3.9375 29.414062 3.9375 29.4375 3.9375 C 29.601562 3.863281 29.753906 3.769531 29.890625 3.65625 C 30.035156 3.539062 30.132812 3.390625 30.1875 3.203125 C 30.132812 3.203125 30.097656 3.203125 30.078125 3.203125 C 29.628906 3.222656 29.34375 3.160156 29.21875 3.015625 C 29.101562 2.878906 29.097656 2.625 29.203125 2.25 C 29.265625 2 29.351562 1.75 29.46875 1.5 C 29.5 1.4375 29.523438 1.382812 29.546875 1.34375 C 29.722656 0.882812 29.890625 0.441406 30.046875 0.015625 C 30.453125 -0.960938 30.835938 -1.945312 31.203125 -2.9375 C 31.222656 -2.976562 31.253906 -3.035156 31.296875 -3.109375 C 31.367188 -3.265625 31.414062 -3.414062 31.4375 -3.5625 C 31.457031 -3.707031 31.421875 -3.859375 31.328125 -4.015625 C 31.304688 -4.015625 31.285156 -4.015625 31.265625 -4.015625 C 31.148438 -3.992188 31.050781 -3.957031 30.96875 -3.90625 C 30.90625 -3.882812 30.847656 -3.863281 30.796875 -3.84375 C 27.929688 -2.8125 25.097656 -1.71875 22.296875 -0.5625 C 19.503906 0.59375 16.742188 1.847656 14.015625 3.203125 C 11.796875 4.253906 9.648438 5.4375 7.578125 6.75 C 6.378906 7.46875 5.289062 8.328125 4.3125 9.328125 C 3.757812 9.816406 3.347656 10.410156 3.078125 11.109375 C 2.992188 11.328125 3 11.539062 3.09375 11.75 C 3.195312 11.957031 3.375 12.097656 3.625 12.171875 C 3.914062 12.253906 4.21875 12.296875 4.53125 12.296875 C 4.875 12.296875 5.210938 12.265625 5.546875 12.203125 C 7.734375 11.804688 9.898438 11.257812 12.046875 10.5625 C 16.703125 9.082031 21.285156 7.390625 25.796875 5.484375 C 27.003906 4.992188 28.207031 4.476562 29.40625 3.9375 Z M 60.703125 -12.53125 C 60.722656 -12.582031 60.757812 -12.617188 60.8125 -12.640625 C 60.894531 -12.679688 60.957031 -12.738281 61 -12.8125 C 61.050781 -12.882812 61.046875 -12.988281 60.984375 -13.125 C 60.867188 -13.101562 60.738281 -13.066406 60.59375 -13.015625 C 59.84375 -12.804688 59.09375 -12.613281 58.34375 -12.4375 C 56.289062 -11.894531 54.25 -11.34375 52.21875 -10.78125 C 46.582031 -9.195312 40.988281 -7.445312 35.4375 -5.53125 C 34.957031 -5.382812 34.554688 -5.171875 34.234375 -4.890625 C 33.910156 -4.617188 33.675781 -4.234375 33.53125 -3.734375 C 33.445312 -3.492188 33.347656 -3.25 33.234375 -3 C 33.160156 -2.882812 33.101562 -2.769531 33.0625 -2.65625 C 32.925781 -2.320312 32.703125 -1.851562 32.390625 -1.25 C 32.078125 -0.632812 31.757812 0.0078125 31.4375 0.6875 C 31.125 1.363281 30.90625 1.941406 30.78125 2.421875 C 30.65625 2.910156 30.707031 3.191406 30.9375 3.265625 C 31.25 3.191406 31.539062 3.066406 31.8125 2.890625 C 31.9375 2.816406 32.070312 2.75 32.21875 2.6875 C 38.332031 0 44.3125 -2.976562 50.15625 -6.25 C 52.476562 -7.582031 54.773438 -8.9375 57.046875 -10.3125 C 58.046875 -10.925781 59.039062 -11.523438 60.03125 -12.109375 C 60.050781 -12.128906 60.070312 -12.140625 60.09375 -12.140625 C 60.320312 -12.253906 60.523438 -12.382812 60.703125 -12.53125 Z M 60.703125 -12.53125 "/></g></g><g transform="translate(69.1047, 62.871114)"><g><path d="M 7.375 -9.4375 C 7.289062 -8.726562 6.957031 -8.265625 6.375 -8.046875 C 5.800781 -7.835938 5.613281 -8.125 5.8125 -8.90625 C 6.019531 -9.6875 5.671875 -9.882812 4.765625 -9.5 C 3.867188 -9.113281 3.125 -8.628906 2.53125 -8.046875 C 1.632812 -7.117188 0.835938 -6.125 0.140625 -5.0625 C 0.0664062 -4.96875 0.0078125 -4.890625 -0.03125 -4.828125 C -0.238281 -4.535156 -0.441406 -4.253906 -0.640625 -3.984375 C -0.773438 -3.796875 -0.929688 -3.675781 -1.109375 -3.625 C -1.296875 -3.582031 -1.476562 -3.578125 -1.65625 -3.609375 C -1.832031 -3.628906 -1.96875 -3.695312 -2.0625 -3.8125 C -2.15625 -3.925781 -2.164062 -4.0625 -2.09375 -4.21875 C -1.976562 -4.488281 -1.84375 -4.769531 -1.6875 -5.0625 C -0.769531 -6.769531 0.164062 -8.488281 1.125 -10.21875 C 1.144531 -10.238281 1.15625 -10.257812 1.15625 -10.28125 C 1.289062 -10.539062 1.445312 -10.785156 1.625 -11.015625 C 1.832031 -11.234375 2.066406 -11.320312 2.328125 -11.28125 C 2.597656 -11.25 2.78125 -11.09375 2.875 -10.8125 C 2.988281 -10.457031 3.085938 -10.253906 3.171875 -10.203125 C 3.253906 -10.160156 3.4375 -10.195312 3.71875 -10.3125 C 4.332031 -10.53125 4.929688 -10.6875 5.515625 -10.78125 C 6.109375 -10.875 6.585938 -10.847656 6.953125 -10.703125 C 7.328125 -10.566406 7.46875 -10.144531 7.375 -9.4375 Z M 7.375 -9.4375 "/></g></g><g transform="translate(76.796798, 62.871114)"><g><path d="M 11.15625 -7.828125 C 11.394531 -7.691406 11.414062 -7.359375 11.21875 -6.828125 C 10.914062 -6.441406 10.59375 -6.078125 10.25 -5.734375 C 9.914062 -5.398438 9.550781 -5.097656 9.15625 -4.828125 C 9.125 -4.828125 9.109375 -4.816406 9.109375 -4.796875 C 8.835938 -4.609375 8.554688 -4.453125 8.265625 -4.328125 C 5.804688 -3.441406 4.550781 -3.957031 4.5 -5.875 C 3.507812 -5.007812 2.84375 -4.484375 2.5 -4.296875 C 1.695312 -3.804688 0.820312 -3.585938 -0.125 -3.640625 C -0.820312 -3.679688 -1.296875 -3.894531 -1.546875 -4.28125 C -1.796875 -4.664062 -1.773438 -5.1875 -1.484375 -5.84375 C -1.023438 -6.875 -0.378906 -7.796875 0.453125 -8.609375 C 1.421875 -9.515625 2.5 -10.238281 3.6875 -10.78125 C 4.320312 -11.101562 4.988281 -11.226562 5.6875 -11.15625 C 6.382812 -11.113281 6.804688 -10.71875 6.953125 -9.96875 C 7.015625 -9.738281 6.957031 -9.535156 6.78125 -9.359375 C 6.550781 -9.160156 6.289062 -9.117188 6 -9.234375 C 5.976562 -9.234375 5.945312 -9.238281 5.90625 -9.25 C 5.875 -9.257812 5.847656 -9.273438 5.828125 -9.296875 C 5.535156 -9.703125 5.234375 -9.867188 4.921875 -9.796875 C 4.617188 -9.734375 4.300781 -9.597656 3.96875 -9.390625 C 2.382812 -8.472656 1.210938 -7.1875 0.453125 -5.53125 C 0.410156 -5.457031 0.382812 -5.378906 0.375 -5.296875 C 0.363281 -5.210938 0.390625 -5.144531 0.453125 -5.09375 C 0.628906 -5.03125 0.832031 -5.039062 1.0625 -5.125 C 1.289062 -5.21875 1.515625 -5.347656 1.734375 -5.515625 C 1.960938 -5.679688 2.15625 -5.820312 2.3125 -5.9375 C 2.332031 -5.96875 2.34375 -5.984375 2.34375 -5.984375 C 3.082031 -6.609375 3.8125 -7.25 4.53125 -7.90625 C 4.851562 -8.238281 5.25 -8.425781 5.71875 -8.46875 C 6.394531 -8.46875 6.675781 -8.164062 6.5625 -7.5625 C 6.5 -7.34375 6.4375 -7.117188 6.375 -6.890625 C 6.101562 -5.910156 6.085938 -5.335938 6.328125 -5.171875 C 6.578125 -5.003906 6.957031 -5.003906 7.46875 -5.171875 C 7.976562 -5.335938 8.484375 -5.660156 8.984375 -6.140625 C 9.492188 -6.617188 9.921875 -7.054688 10.265625 -7.453125 C 10.617188 -7.847656 10.914062 -7.972656 11.15625 -7.828125 Z M 11.15625 -7.828125 "/></g></g><g transform="translate(86.996519, 62.871114)"><g/></g><g transform="translate(98.626971, 62.871114)"><g><path d="M 61.546875 -40.015625 C 62.546875 -37.222656 62.332031 -34.425781 60.90625 -31.625 C 60.769531 -31.351562 60.609375 -31.109375 60.421875 -30.890625 C 60.234375 -30.679688 59.96875 -30.539062 59.625 -30.46875 C 59.40625 -30.425781 59.207031 -30.476562 59.03125 -30.625 C 58.863281 -30.78125 58.800781 -30.953125 58.84375 -31.140625 C 58.976562 -31.535156 59.113281 -31.910156 59.25 -32.265625 C 59.320312 -32.453125 59.40625 -32.632812 59.5 -32.8125 C 60.195312 -34.75 60.316406 -36.664062 59.859375 -38.5625 C 59.367188 -40.726562 58.070312 -42.148438 55.96875 -42.828125 C 54.75 -43.191406 53.519531 -43.390625 52.28125 -43.421875 C 51.039062 -43.453125 49.78125 -43.351562 48.5 -43.125 C 44.59375 -42.40625 40.773438 -41.269531 37.046875 -39.71875 C 31.316406 -37.382812 25.859375 -34.484375 20.671875 -31.015625 C 16.210938 -28.035156 12.195312 -24.523438 8.625 -20.484375 C 7.382812 -19.085938 6.257812 -17.601562 5.25 -16.03125 C 4.25 -14.46875 3.445312 -12.796875 2.84375 -11.015625 C 2.257812 -9.242188 1.976562 -7.453125 2 -5.640625 C 2.070312 -3.691406 2.5625 -2.03125 3.46875 -0.65625 C 4.382812 0.71875 5.613281 1.71875 7.15625 2.34375 C 8.695312 2.976562 10.4375 3.132812 12.375 2.8125 C 14.863281 2.394531 17.210938 1.507812 19.421875 0.15625 C 20.734375 -0.613281 21.957031 -1.484375 23.09375 -2.453125 C 24.238281 -3.421875 25.335938 -4.445312 26.390625 -5.53125 C 28.941406 -8.195312 31.222656 -11.078125 33.234375 -14.171875 C 34.398438 -15.992188 35.367188 -17.921875 36.140625 -19.953125 C 36.179688 -20.023438 36.210938 -20.101562 36.234375 -20.1875 C 36.421875 -20.664062 36.628906 -21.128906 36.859375 -21.578125 C 37.210938 -22.203125 37.773438 -22.472656 38.546875 -22.390625 C 39.015625 -22.335938 39.273438 -22.066406 39.328125 -21.578125 C 39.328125 -20.847656 39.1875 -20.132812 38.90625 -19.4375 C 37.195312 -14.550781 35.335938 -9.710938 33.328125 -4.921875 C 33.285156 -4.804688 33.238281 -4.691406 33.1875 -4.578125 C 33.070312 -4.359375 32.976562 -4.132812 32.90625 -3.90625 C 32.875 -3.84375 32.847656 -3.773438 32.828125 -3.703125 C 32.710938 -3.441406 32.644531 -3.160156 32.625 -2.859375 C 32.625 -2.742188 32.660156 -2.65625 32.734375 -2.59375 C 32.816406 -2.539062 32.910156 -2.5 33.015625 -2.46875 C 33.160156 -2.414062 33.273438 -2.347656 33.359375 -2.265625 C 33.390625 -2.265625 33.414062 -2.25 33.4375 -2.21875 C 33.5 -2.15625 33.550781 -2.085938 33.59375 -2.015625 C 33.644531 -1.953125 33.625 -1.863281 33.53125 -1.75 C 33.46875 -1.632812 33.367188 -1.546875 33.234375 -1.484375 C 33.085938 -1.410156 32.941406 -1.375 32.796875 -1.375 C 32.359375 -1.425781 32.015625 -1.332031 31.765625 -1.09375 C 31.523438 -0.851562 31.320312 -0.550781 31.15625 -0.1875 C 30.550781 1.09375 29.929688 2.363281 29.296875 3.625 C 27.992188 6.289062 26.53125 8.882812 24.90625 11.40625 C 23.882812 12.988281 22.742188 14.484375 21.484375 15.890625 C 20.179688 17.378906 18.640625 18.535156 16.859375 19.359375 C 15.878906 19.816406 14.882812 20.070312 13.875 20.125 C 12.707031 20.195312 11.753906 19.910156 11.015625 19.265625 C 10.285156 18.628906 9.875 17.726562 9.78125 16.5625 C 9.707031 15.570312 9.84375 14.578125 10.1875 13.578125 C 10.894531 11.660156 11.929688 9.945312 13.296875 8.4375 C 16.796875 4.445312 20.972656 1.46875 25.828125 -0.5 C 26.640625 -0.8125 27.445312 -1.09375 28.25 -1.34375 C 28.34375 -1.394531 28.445312 -1.429688 28.5625 -1.453125 C 29.164062 -1.617188 29.609375 -1.984375 29.890625 -2.546875 C 30.128906 -3.148438 30.382812 -3.742188 30.65625 -4.328125 C 31.40625 -5.878906 32.039062 -7.476562 32.5625 -9.125 C 32.582031 -9.175781 32.582031 -9.222656 32.5625 -9.265625 C 32.53125 -9.285156 32.515625 -9.304688 32.515625 -9.328125 C 32.265625 -9.285156 32.066406 -9.179688 31.921875 -9.015625 C 31.785156 -8.859375 31.644531 -8.691406 31.5 -8.515625 C 31.4375 -8.410156 31.359375 -8.300781 31.265625 -8.1875 C 29.535156 -6.101562 27.664062 -4.148438 25.65625 -2.328125 C 23.21875 -0.109375 20.507812 1.601562 17.53125 2.8125 C 15.84375 3.488281 14.140625 3.929688 12.421875 4.140625 C 10.703125 4.359375 8.988281 4.300781 7.28125 3.96875 C 5.300781 3.570312 3.632812 2.617188 2.28125 1.109375 C 0.925781 -0.390625 0.109375 -2.273438 -0.171875 -4.546875 C -0.328125 -5.972656 -0.273438 -7.378906 -0.015625 -8.765625 C 0.242188 -10.148438 0.671875 -11.519531 1.265625 -12.875 C 1.941406 -14.394531 2.734375 -15.828125 3.640625 -17.171875 C 4.554688 -18.523438 5.566406 -19.835938 6.671875 -21.109375 C 10.566406 -25.523438 15 -29.320312 19.96875 -32.5 C 23.507812 -34.800781 27.15625 -36.847656 30.90625 -38.640625 C 34.664062 -40.441406 38.546875 -41.9375 42.546875 -43.125 C 44.296875 -43.664062 46.070312 -44.078125 47.875 -44.359375 C 49.6875 -44.648438 51.492188 -44.757812 53.296875 -44.6875 C 55.191406 -44.625 56.960938 -44.1875 58.609375 -43.375 C 60.046875 -42.644531 61.023438 -41.523438 61.546875 -40.015625 Z M 28.359375 0.5 C 28.398438 0.332031 28.375 0.195312 28.28125 0.09375 C 28.195312 -0.0078125 28.078125 -0.0351562 27.921875 0.015625 C 27.554688 0.128906 27.207031 0.253906 26.875 0.390625 C 22.71875 2.210938 19.0625 4.785156 15.90625 8.109375 C 14.757812 9.296875 13.78125 10.613281 12.96875 12.0625 C 12.351562 13.070312 11.976562 14.265625 11.84375 15.640625 C 11.84375 15.660156 11.84375 15.707031 11.84375 15.78125 C 11.820312 15.96875 11.820312 16.203125 11.84375 16.484375 C 11.957031 17.523438 12.3125 18.222656 12.90625 18.578125 C 13.507812 18.929688 14.304688 18.898438 15.296875 18.484375 C 16.734375 17.828125 18 16.90625 19.09375 15.71875 C 20.445312 14.289062 21.640625 12.753906 22.671875 11.109375 C 23.703125 9.503906 24.664062 7.859375 25.5625 6.171875 C 26.457031 4.492188 27.304688 2.800781 28.109375 1.09375 C 28.203125 0.882812 28.285156 0.691406 28.359375 0.515625 C 28.359375 0.503906 28.359375 0.5 28.359375 0.5 Z M 28.359375 0.5 "/></g></g><g transform="translate(138.195122, 62.871114)"><g><path d="M 11.15625 -7.828125 C 11.394531 -7.691406 11.414062 -7.359375 11.21875 -6.828125 C 10.914062 -6.441406 10.59375 -6.078125 10.25 -5.734375 C 9.914062 -5.398438 9.550781 -5.097656 9.15625 -4.828125 C 9.125 -4.828125 9.109375 -4.816406 9.109375 -4.796875 C 8.835938 -4.609375 8.554688 -4.453125 8.265625 -4.328125 C 5.804688 -3.441406 4.550781 -3.957031 4.5 -5.875 C 3.507812 -5.007812 2.84375 -4.484375 2.5 -4.296875 C 1.695312 -3.804688 0.820312 -3.585938 -0.125 -3.640625 C -0.820312 -3.679688 -1.296875 -3.894531 -1.546875 -4.28125 C -1.796875 -4.664062 -1.773438 -5.1875 -1.484375 -5.84375 C -1.023438 -6.875 -0.378906 -7.796875 0.453125 -8.609375 C 1.421875 -9.515625 2.5 -10.238281 3.6875 -10.78125 C 4.320312 -11.101562 4.988281 -11.226562 5.6875 -11.15625 C 6.382812 -11.113281 6.804688 -10.71875 6.953125 -9.96875 C 7.015625 -9.738281 6.957031 -9.535156 6.78125 -9.359375 C 6.550781 -9.160156 6.289062 -9.117188 6 -9.234375 C 5.976562 -9.234375 5.945312 -9.238281 5.90625 -9.25 C 5.875 -9.257812 5.847656 -9.273438 5.828125 -9.296875 C 5.535156 -9.703125 5.234375 -9.867188 4.921875 -9.796875 C 4.617188 -9.734375 4.300781 -9.597656 3.96875 -9.390625 C 2.382812 -8.472656 1.210938 -7.1875 0.453125 -5.53125 C 0.410156 -5.457031 0.382812 -5.378906 0.375 -5.296875 C 0.363281 -5.210938 0.390625 -5.144531 0.453125 -5.09375 C 0.628906 -5.03125 0.832031 -5.039062 1.0625 -5.125 C 1.289062 -5.21875 1.515625 -5.347656 1.734375 -5.515625 C 1.960938 -5.679688 2.15625 -5.820312 2.3125 -5.9375 C 2.332031 -5.96875 2.34375 -5.984375 2.34375 -5.984375 C 3.082031 -6.609375 3.8125 -7.25 4.53125 -7.90625 C 4.851562 -8.238281 5.25 -8.425781 5.71875 -8.46875 C 6.394531 -8.46875 6.675781 -8.164062 6.5625 -7.5625 C 6.5 -7.34375 6.4375 -7.117188 6.375 -6.890625 C 6.101562 -5.910156 6.085938 -5.335938 6.328125 -5.171875 C 6.578125 -5.003906 6.957031 -5.003906 7.46875 -5.171875 C 7.976562 -5.335938 8.484375 -5.660156 8.984375 -6.140625 C 9.492188 -6.617188 9.921875 -7.054688 10.265625 -7.453125 C 10.617188 -7.847656 10.914062 -7.972656 11.15625 -7.828125 Z M 11.15625 -7.828125 "/></g></g><g transform="translate(148.394844, 62.871114)"><g><path d="M 7.875 -24.421875 C 7.925781 -24.503906 8.035156 -24.570312 8.203125 -24.625 C 8.367188 -24.6875 8.539062 -24.726562 8.71875 -24.75 C 8.90625 -24.78125 9.0625 -24.773438 9.1875 -24.734375 C 9.320312 -24.703125 9.378906 -24.640625 9.359375 -24.546875 C 9.253906 -24.078125 9.085938 -23.613281 8.859375 -23.15625 C 8.835938 -23.101562 8.800781 -23.03125 8.75 -22.9375 C 7.894531 -20.96875 7.03125 -19.015625 6.15625 -17.078125 C 6.019531 -16.785156 5.894531 -16.503906 5.78125 -16.234375 C 5.46875 -15.578125 5.070312 -14.773438 4.59375 -13.828125 C 4.070312 -12.828125 3.625 -11.914062 3.25 -11.09375 C 3.601562 -11.519531 4.050781 -11.832031 4.59375 -12.03125 C 5.144531 -12.226562 5.5625 -12.328125 5.84375 -12.328125 C 6.925781 -12.316406 7.523438 -11.78125 7.640625 -10.71875 C 7.816406 -9.519531 7.601562 -8.300781 7 -7.0625 C 6.394531 -5.820312 5.59375 -4.804688 4.59375 -4.015625 C 3.757812 -3.546875 2.960938 -3.335938 2.203125 -3.390625 C 1.453125 -3.441406 0.785156 -3.804688 0.203125 -4.484375 C 0.128906 -4.484375 0.0546875 -4.453125 -0.015625 -4.390625 C -0.0976562 -4.328125 -0.1875 -4.25 -0.28125 -4.15625 C -0.394531 -4.019531 -0.515625 -3.914062 -0.640625 -3.84375 C -0.734375 -3.800781 -0.832031 -3.789062 -0.9375 -3.8125 C -1.039062 -3.832031 -1.125 -3.863281 -1.1875 -3.90625 C -1.40625 -4.09375 -1.476562 -4.316406 -1.40625 -4.578125 C -0.539062 -6.835938 0.472656 -9.1875 1.640625 -11.625 C 2.804688 -14.0625 3.972656 -16.441406 5.140625 -18.765625 C 5.628906 -19.796875 6.113281 -20.800781 6.59375 -21.78125 C 6.789062 -22.15625 6.984375 -22.550781 7.171875 -22.96875 C 7.390625 -23.4375 7.625 -23.921875 7.875 -24.421875 Z M 4.015625 -10.46875 C 3.222656 -9.90625 2.539062 -9.21875 1.96875 -8.40625 C 1.394531 -7.601562 1.191406 -6.75 1.359375 -5.84375 C 1.441406 -5.320312 1.648438 -4.953125 1.984375 -4.734375 C 2.316406 -4.523438 2.710938 -4.601562 3.171875 -4.96875 C 3.617188 -5.382812 4.066406 -5.910156 4.515625 -6.546875 C 4.972656 -7.179688 5.335938 -7.859375 5.609375 -8.578125 C 5.835938 -9.210938 5.972656 -9.765625 6.015625 -10.234375 C 6.066406 -10.710938 5.941406 -11.003906 5.640625 -11.109375 C 5.347656 -11.210938 4.804688 -11 4.015625 -10.46875 Z M 4.015625 -10.46875 "/></g></g><g transform="translate(156.917688, 62.871114)"><g><path d="M 7.375 -9.4375 C 7.289062 -8.726562 6.957031 -8.265625 6.375 -8.046875 C 5.800781 -7.835938 5.613281 -8.125 5.8125 -8.90625 C 6.019531 -9.6875 5.671875 -9.882812 4.765625 -9.5 C 3.867188 -9.113281 3.125 -8.628906 2.53125 -8.046875 C 1.632812 -7.117188 0.835938 -6.125 0.140625 -5.0625 C 0.0664062 -4.96875 0.0078125 -4.890625 -0.03125 -4.828125 C -0.238281 -4.535156 -0.441406 -4.253906 -0.640625 -3.984375 C -0.773438 -3.796875 -0.929688 -3.675781 -1.109375 -3.625 C -1.296875 -3.582031 -1.476562 -3.578125 -1.65625 -3.609375 C -1.832031 -3.628906 -1.96875 -3.695312 -2.0625 -3.8125 C -2.15625 -3.925781 -2.164062 -4.0625 -2.09375 -4.21875 C -1.976562 -4.488281 -1.84375 -4.769531 -1.6875 -5.0625 C -0.769531 -6.769531 0.164062 -8.488281 1.125 -10.21875 C 1.144531 -10.238281 1.15625 -10.257812 1.15625 -10.28125 C 1.289062 -10.539062 1.445312 -10.785156 1.625 -11.015625 C 1.832031 -11.234375 2.066406 -11.320312 2.328125 -11.28125 C 2.597656 -11.25 2.78125 -11.09375 2.875 -10.8125 C 2.988281 -10.457031 3.085938 -10.253906 3.171875 -10.203125 C 3.253906 -10.160156 3.4375 -10.195312 3.71875 -10.3125 C 4.332031 -10.53125 4.929688 -10.6875 5.515625 -10.78125 C 6.109375 -10.875 6.585938 -10.847656 6.953125 -10.703125 C 7.328125 -10.566406 7.46875 -10.144531 7.375 -9.4375 Z M 7.375 -9.4375 "/></g></g><g transform="translate(164.609786, 62.871114)"><g><path d="M 6.109375 -6.46875 C 5.566406 -5.820312 4.921875 -5.226562 4.171875 -4.6875 C 3.421875 -4.144531 2.570312 -3.78125 1.625 -3.59375 C 0.6875 -3.40625 -0.0390625 -3.472656 -0.5625 -3.796875 C -1.09375 -4.128906 -1.195312 -4.859375 -0.875 -5.984375 C -0.46875 -7.148438 0.09375 -8.265625 0.8125 -9.328125 C 0.976562 -9.546875 1.210938 -9.703125 1.515625 -9.796875 C 1.742188 -9.847656 1.941406 -9.804688 2.109375 -9.671875 C 2.285156 -9.546875 2.351562 -9.390625 2.3125 -9.203125 C 2.15625 -8.828125 1.984375 -8.453125 1.796875 -8.078125 C 1.609375 -7.710938 1.488281 -7.476562 1.4375 -7.375 C 1.070312 -6.71875 0.816406 -6.03125 0.671875 -5.3125 C 0.671875 -4.894531 1.21875 -4.863281 2.3125 -5.21875 C 3.414062 -5.582031 4.484375 -6.242188 5.515625 -7.203125 C 6.554688 -8.160156 7.050781 -8.441406 7 -8.046875 C 6.957031 -7.648438 6.660156 -7.125 6.109375 -6.46875 Z M 3.4375 -11.625 C 3.382812 -11.582031 3.273438 -11.53125 3.109375 -11.46875 C 2.953125 -11.414062 2.785156 -11.378906 2.609375 -11.359375 C 2.429688 -11.335938 2.289062 -11.363281 2.1875 -11.4375 C 2.082031 -11.519531 2.078125 -11.6875 2.171875 -11.9375 C 2.335938 -12.363281 2.507812 -12.738281 2.6875 -13.0625 C 2.863281 -13.382812 3.097656 -13.742188 3.390625 -14.140625 C 3.566406 -14.304688 3.765625 -14.394531 3.984375 -14.40625 C 4.203125 -14.425781 4.378906 -14.375 4.515625 -14.25 C 4.660156 -14.125 4.703125 -13.945312 4.640625 -13.71875 C 4.421875 -12.90625 4.019531 -12.207031 3.4375 -11.625 Z M 3.4375 -11.625 "/></g></g><g transform="translate(170.609622, 62.871114)"><g><path d="M 8.765625 -5.90625 C 8.171875 -5.320312 7.476562 -4.820312 6.6875 -4.40625 C 5.894531 -3.988281 5.234375 -3.71875 4.703125 -3.59375 C 4.171875 -3.46875 3.625 -3.394531 3.0625 -3.375 C 2.15625 -3.332031 1.320312 -3.453125 0.5625 -3.734375 C -0.675781 -4.234375 -1.101562 -5.191406 -0.71875 -6.609375 C -0.363281 -7.828125 0.359375 -8.78125 1.453125 -9.46875 C 2.554688 -10.15625 3.691406 -10.488281 4.859375 -10.46875 C 4.859375 -10.46875 4.867188 -10.46875 4.890625 -10.46875 C 5.191406 -10.488281 5.472656 -10.46875 5.734375 -10.40625 C 6.179688 -10.25 6.46875 -9.984375 6.59375 -9.609375 C 6.71875 -9.242188 6.640625 -8.832031 6.359375 -8.375 C 5.703125 -7.382812 4.804688 -6.832031 3.671875 -6.71875 C 2.921875 -6.644531 2.195312 -6.679688 1.5 -6.828125 C 1.375 -6.847656 1.257812 -6.8125 1.15625 -6.71875 C 1.050781 -6.625 0.988281 -6.515625 0.96875 -6.390625 C 0.757812 -5.503906 1.03125 -4.9375 1.78125 -4.6875 C 2.707031 -4.375 3.664062 -4.375 4.65625 -4.6875 C 5.8125 -5.050781 6.90625 -5.726562 7.9375 -6.71875 C 8.96875 -7.71875 9.5625 -8.179688 9.71875 -8.109375 C 9.882812 -8.046875 9.9375 -7.851562 9.875 -7.53125 C 9.726562 -7.03125 9.359375 -6.488281 8.765625 -5.90625 Z M 2.21875 -8.375 C 2.15625 -8.3125 2.109375 -8.234375 2.078125 -8.140625 C 2.054688 -8.054688 2.09375 -7.976562 2.1875 -7.90625 C 2.539062 -7.695312 2.925781 -7.617188 3.34375 -7.671875 C 3.769531 -7.734375 4.128906 -7.894531 4.421875 -8.15625 C 4.710938 -8.414062 4.835938 -8.738281 4.796875 -9.125 C 4.765625 -9.257812 4.691406 -9.34375 4.578125 -9.375 C 4.472656 -9.40625 4.363281 -9.410156 4.25 -9.390625 C 3.488281 -9.265625 2.8125 -8.925781 2.21875 -8.375 Z M 2.21875 -8.375 "/></g></g><g transform="translate(179.563224, 62.871114)"><g><path d="M 7.4375 -7.34375 C 7.78125 -7.675781 8.0625 -7.863281 8.28125 -7.90625 C 8.507812 -7.945312 8.65625 -7.910156 8.71875 -7.796875 C 8.789062 -7.679688 8.75 -7.53125 8.59375 -7.34375 C 7.695312 -6.25 6.6875 -5.304688 5.5625 -4.515625 C 4.445312 -3.734375 3.296875 -3.28125 2.109375 -3.15625 C 0.929688 -3.03125 0.21875 -3.675781 -0.03125 -5.09375 C -0.21875 -6.5 0.628906 -9.359375 2.515625 -13.671875 C 4.410156 -17.992188 5.90625 -21.53125 7 -24.28125 C 7.09375 -24.53125 7.226562 -24.75 7.40625 -24.9375 C 7.65625 -25.175781 7.953125 -25.234375 8.296875 -25.109375 C 8.398438 -25.054688 8.507812 -24.972656 8.625 -24.859375 C 8.738281 -24.742188 8.773438 -24.539062 8.734375 -24.25 C 3.890625 -12.75 1.539062 -6.492188 1.6875 -5.484375 C 1.84375 -4.484375 2.492188 -4.234375 3.640625 -4.734375 C 4.785156 -5.242188 5.664062 -5.765625 6.28125 -6.296875 C 6.90625 -6.828125 7.289062 -7.175781 7.4375 -7.34375 Z M 7.4375 -7.34375 "/></g></g><g transform="translate(187.239937, 62.871114)"><g><path d="M 11.15625 -7.828125 C 11.394531 -7.691406 11.414062 -7.359375 11.21875 -6.828125 C 10.914062 -6.441406 10.59375 -6.078125 10.25 -5.734375 C 9.914062 -5.398438 9.550781 -5.097656 9.15625 -4.828125 C 9.125 -4.828125 9.109375 -4.816406 9.109375 -4.796875 C 8.835938 -4.609375 8.554688 -4.453125 8.265625 -4.328125 C 5.804688 -3.441406 4.550781 -3.957031 4.5 -5.875 C 3.507812 -5.007812 2.84375 -4.484375 2.5 -4.296875 C 1.695312 -3.804688 0.820312 -3.585938 -0.125 -3.640625 C -0.820312 -3.679688 -1.296875 -3.894531 -1.546875 -4.28125 C -1.796875 -4.664062 -1.773438 -5.1875 -1.484375 -5.84375 C -1.023438 -6.875 -0.378906 -7.796875 0.453125 -8.609375 C 1.421875 -9.515625 2.5 -10.238281 3.6875 -10.78125 C 4.320312 -11.101562 4.988281 -11.226562 5.6875 -11.15625 C 6.382812 -11.113281 6.804688 -10.71875 6.953125 -9.96875 C 7.015625 -9.738281 6.957031 -9.535156 6.78125 -9.359375 C 6.550781 -9.160156 6.289062 -9.117188 6 -9.234375 C 5.976562 -9.234375 5.945312 -9.238281 5.90625 -9.25 C 5.875 -9.257812 5.847656 -9.273438 5.828125 -9.296875 C 5.535156 -9.703125 5.234375 -9.867188 4.921875 -9.796875 C 4.617188 -9.734375 4.300781 -9.597656 3.96875 -9.390625 C 2.382812 -8.472656 1.210938 -7.1875 0.453125 -5.53125 C 0.410156 -5.457031 0.382812 -5.378906 0.375 -5.296875 C 0.363281 -5.210938 0.390625 -5.144531 0.453125 -5.09375 C 0.628906 -5.03125 0.832031 -5.039062 1.0625 -5.125 C 1.289062 -5.21875 1.515625 -5.347656 1.734375 -5.515625 C 1.960938 -5.679688 2.15625 -5.820312 2.3125 -5.9375 C 2.332031 -5.96875 2.34375 -5.984375 2.34375 -5.984375 C 3.082031 -6.609375 3.8125 -7.25 4.53125 -7.90625 C 4.851562 -8.238281 5.25 -8.425781 5.71875 -8.46875 C 6.394531 -8.46875 6.675781 -8.164062 6.5625 -7.5625 C 6.5 -7.34375 6.4375 -7.117188 6.375 -6.890625 C 6.101562 -5.910156 6.085938 -5.335938 6.328125 -5.171875 C 6.578125 -5.003906 6.957031 -5.003906 7.46875 -5.171875 C 7.976562 -5.335938 8.484375 -5.660156 8.984375 -6.140625 C 9.492188 -6.617188 9.921875 -7.054688 10.265625 -7.453125 C 10.617188 -7.847656 10.914062 -7.972656 11.15625 -7.828125 Z M 11.15625 -7.828125 "/></g></g></g></g></g><g transform="matrix(1, 0, 0, 1, 236, 126)"><g clip-path="url(#16a25f2e42)"><g fill="#000000" fill-opacity="1"><g transform="translate(2.509086, 62.871114)"><g><path d="M 57.359375 -23.953125 C 57.242188 -23.929688 57.117188 -23.929688 56.984375 -23.953125 C 56.847656 -23.972656 56.722656 -24.03125 56.609375 -24.125 C 56.484375 -24.25 56.429688 -24.367188 56.453125 -24.484375 C 56.472656 -24.597656 56.519531 -24.703125 56.59375 -24.796875 C 57.664062 -26.523438 58.597656 -28.335938 59.390625 -30.234375 C 59.890625 -31.410156 60.328125 -32.617188 60.703125 -33.859375 C 60.953125 -34.617188 60.972656 -35.441406 60.765625 -36.328125 C 60.578125 -37.273438 60.015625 -37.941406 59.078125 -38.328125 C 58.359375 -38.597656 57.625 -38.742188 56.875 -38.765625 C 56.738281 -38.765625 56.609375 -38.765625 56.484375 -38.765625 C 54.898438 -38.703125 53.363281 -38.472656 51.875 -38.078125 C 49.300781 -37.453125 46.8125 -36.675781 44.40625 -35.75 C 42.007812 -34.820312 39.660156 -33.8125 37.359375 -32.71875 C 27.273438 -27.8125 18.253906 -21.617188 10.296875 -14.140625 C 8.285156 -12.328125 6.523438 -10.304688 5.015625 -8.078125 C 4.492188 -7.285156 4.03125 -6.445312 3.625 -5.5625 C 3.40625 -5.070312 3.25 -4.546875 3.15625 -3.984375 C 2.8125 -2.160156 3.597656 -0.796875 5.515625 0.109375 C 7.140625 0.859375 8.785156 1.28125 10.453125 1.375 C 11.765625 1.476562 13.039062 1.53125 14.28125 1.53125 C 14.875 1.53125 15.441406 1.507812 15.984375 1.46875 C 23.878906 1.382812 31.332031 0.359375 38.34375 -1.609375 C 38.457031 -1.648438 38.570312 -1.679688 38.6875 -1.703125 C 39.15625 -1.867188 39.648438 -2 40.171875 -2.09375 C 40.304688 -2.113281 40.53125 -2.132812 40.84375 -2.15625 C 41.15625 -2.175781 41.453125 -2.15625 41.734375 -2.09375 C 42.015625 -2.039062 42.191406 -1.910156 42.265625 -1.703125 C 42.285156 -1.585938 42.265625 -1.503906 42.203125 -1.453125 C 42.148438 -1.398438 42.066406 -1.363281 41.953125 -1.34375 C 41.523438 -1.226562 41.101562 -1.113281 40.6875 -1 C 39.414062 -0.664062 38.148438 -0.335938 36.890625 -0.015625 C 29.773438 1.804688 22.394531 2.691406 14.75 2.640625 C 13.164062 2.640625 11.585938 2.609375 10.015625 2.546875 C 8.242188 2.484375 6.460938 2.113281 4.671875 1.4375 C 1.128906 0.0625 -0.109375 -2.207031 0.953125 -5.375 C 1.378906 -6.632812 1.988281 -7.796875 2.78125 -8.859375 C 3.882812 -10.441406 5.097656 -11.90625 6.421875 -13.25 C 7.753906 -14.601562 9.144531 -15.914062 10.59375 -17.1875 C 17.039062 -22.863281 24.140625 -27.742188 31.890625 -31.828125 C 34.253906 -33.066406 36.664062 -34.222656 39.125 -35.296875 C 41.582031 -36.367188 44.117188 -37.3125 46.734375 -38.125 C 48.921875 -38.820312 51.175781 -39.351562 53.5 -39.71875 C 54.425781 -39.84375 55.351562 -39.90625 56.28125 -39.90625 C 56.882812 -39.90625 57.492188 -39.890625 58.109375 -39.859375 C 58.828125 -39.785156 59.546875 -39.632812 60.265625 -39.40625 C 62.210938 -38.707031 63.207031 -37.421875 63.25 -35.546875 C 63.25 -34.710938 63.132812 -33.910156 62.90625 -33.140625 C 62.4375 -31.660156 61.859375 -30.234375 61.171875 -28.859375 C 60.484375 -27.484375 59.742188 -26.140625 58.953125 -24.828125 C 58.722656 -24.367188 58.359375 -24.078125 57.859375 -23.953125 C 57.703125 -23.929688 57.5625 -23.929688 57.4375 -23.953125 Z M 57.359375 -23.953125 "/></g></g><g transform="translate(46.338659, 62.871114)"><g><path d="M 11.15625 -7.828125 C 11.394531 -7.691406 11.414062 -7.359375 11.21875 -6.828125 C 10.914062 -6.441406 10.59375 -6.078125 10.25 -5.734375 C 9.914062 -5.398438 9.550781 -5.097656 9.15625 -4.828125 C 9.125 -4.828125 9.109375 -4.816406 9.109375 -4.796875 C 8.835938 -4.609375 8.554688 -4.453125 8.265625 -4.328125 C 5.804688 -3.441406 4.550781 -3.957031 4.5 -5.875 C 3.507812 -5.007812 2.84375 -4.484375 2.5 -4.296875 C 1.695312 -3.804688 0.820312 -3.585938 -0.125 -3.640625 C -0.820312 -3.679688 -1.296875 -3.894531 -1.546875 -4.28125 C -1.796875 -4.664062 -1.773438 -5.1875 -1.484375 -5.84375 C -1.023438 -6.875 -0.378906 -7.796875 0.453125 -8.609375 C 1.421875 -9.515625 2.5 -10.238281 3.6875 -10.78125 C 4.320312 -11.101562 4.988281 -11.226562 5.6875 -11.15625 C 6.382812 -11.113281 6.804688 -10.71875 6.953125 -9.96875 C 7.015625 -9.738281 6.957031 -9.535156 6.78125 -9.359375 C 6.550781 -9.160156 6.289062 -9.117188 6 -9.234375 C 5.976562 -9.234375 5.945312 -9.238281 5.90625 -9.25 C 5.875 -9.257812 5.847656 -9.273438 5.828125 -9.296875 C 5.535156 -9.703125 5.234375 -9.867188 4.921875 -9.796875 C 4.617188 -9.734375 4.300781 -9.597656 3.96875 -9.390625 C 2.382812 -8.472656 1.210938 -7.1875 0.453125 -5.53125 C 0.410156 -5.457031 0.382812 -5.378906 0.375 -5.296875 C 0.363281 -5.210938 0.390625 -5.144531 0.453125 -5.09375 C 0.628906 -5.03125 0.832031 -5.039062 1.0625 -5.125 C 1.289062 -5.21875 1.515625 -5.347656 1.734375 -5.515625 C 1.960938 -5.679688 2.15625 -5.820312 2.3125 -5.9375 C 2.332031 -5.96875 2.34375 -5.984375 2.34375 -5.984375 C 3.082031 -6.609375 3.8125 -7.25 4.53125 -7.90625 C 4.851562 -8.238281 5.25 -8.425781 5.71875 -8.46875 C 6.394531 -8.46875 6.675781 -8.164062 6.5625 -7.5625 C 6.5 -7.34375 6.4375 -7.117188 6.375 -6.890625 C 6.101562 -5.910156 6.085938 -5.335938 6.328125 -5.171875 C 6.578125 -5.003906 6.957031 -5.003906 7.46875 -5.171875 C 7.976562 -5.335938 8.484375 -5.660156 8.984375 -6.140625 C 9.492188 -6.617188 9.921875 -7.054688 10.265625 -7.453125 C 10.617188 -7.847656 10.914062 -7.972656 11.15625 -7.828125 Z M 11.15625 -7.828125 "/></g></g><g transform="translate(56.53838, 62.871114)"><g><path d="M 12.1875 -7.671875 C 12.34375 -7.472656 12.132812 -7.097656 11.5625 -6.546875 C 10.988281 -6.003906 10.378906 -5.546875 9.734375 -5.171875 C 9.085938 -4.804688 8.335938 -4.441406 7.484375 -4.078125 C 6.921875 -3.828125 6.320312 -3.742188 5.6875 -3.828125 C 5.050781 -3.910156 4.734375 -4.296875 4.734375 -4.984375 C 4.734375 -5.671875 4.894531 -6.351562 5.21875 -7.03125 C 5.53125 -7.726562 5.597656 -8.085938 5.421875 -8.109375 C 5.242188 -8.128906 4.875 -7.957031 4.3125 -7.59375 C 2.84375 -6.632812 1.476562 -5.535156 0.21875 -4.296875 C -0.125 -3.878906 -0.554688 -3.648438 -1.078125 -3.609375 C -1.347656 -3.609375 -1.554688 -3.691406 -1.703125 -3.859375 C -1.847656 -4.035156 -1.863281 -4.222656 -1.75 -4.421875 C -0.851562 -6.085938 0.0546875 -7.734375 0.984375 -9.359375 C 1.191406 -9.703125 1.5 -9.914062 1.90625 -10 C 2.082031 -10.03125 2.242188 -9.972656 2.390625 -9.828125 C 2.535156 -9.691406 2.609375 -9.535156 2.609375 -9.359375 C 2.585938 -9.203125 2.523438 -9.007812 2.421875 -8.78125 C 2.367188 -8.644531 2.316406 -8.515625 2.265625 -8.390625 C 2.222656 -8.273438 2.207031 -8.175781 2.21875 -8.09375 C 2.238281 -8.007812 2.304688 -7.984375 2.421875 -8.015625 C 2.566406 -8.097656 2.71875 -8.1875 2.875 -8.28125 C 3.257812 -8.5 3.632812 -8.710938 4 -8.921875 C 4.3125 -9.109375 4.640625 -9.269531 4.984375 -9.40625 C 5.335938 -9.550781 5.707031 -9.648438 6.09375 -9.703125 C 6.707031 -9.742188 7.140625 -9.601562 7.390625 -9.28125 C 7.648438 -8.96875 7.679688 -8.53125 7.484375 -7.96875 C 7.285156 -7.457031 7.070312 -6.945312 6.84375 -6.4375 C 6.5625 -5.96875 6.515625 -5.609375 6.703125 -5.359375 C 6.890625 -5.117188 7.75 -5.40625 9.28125 -6.21875 L 10.421875 -6.890625 C 11.515625 -7.585938 12.101562 -7.847656 12.1875 -7.671875 Z M 12.1875 -7.671875 "/></g></g><g transform="translate(67.814996, 62.871114)"><g><path d="M 11.09375 -8.015625 C 11.144531 -8.015625 11.203125 -8 11.265625 -7.96875 C 11.328125 -7.945312 11.378906 -7.914062 11.421875 -7.875 C 11.566406 -7.738281 11.582031 -7.578125 11.46875 -7.390625 C 11.332031 -7.242188 11.195312 -7.113281 11.0625 -7 C 10.269531 -6.269531 9.390625 -5.660156 8.421875 -5.171875 C 6.910156 -4.398438 5.242188 -4.003906 3.421875 -3.984375 C 2.742188 -3.960938 2.046875 -4.078125 1.328125 -4.328125 C 0.015625 -4.835938 -0.519531 -5.785156 -0.28125 -7.171875 C 0.0195312 -8.453125 0.742188 -9.515625 1.890625 -10.359375 C 3.035156 -11.203125 4.265625 -11.566406 5.578125 -11.453125 C 5.828125 -11.410156 6.078125 -11.359375 6.328125 -11.296875 C 6.546875 -11.203125 6.710938 -11.0625 6.828125 -10.875 C 6.941406 -10.695312 6.953125 -10.550781 6.859375 -10.4375 C 6.609375 -10.175781 6.328125 -10.113281 6.015625 -10.25 C 5.546875 -10.445312 5.113281 -10.5 4.71875 -10.40625 C 4.320312 -10.320312 3.921875 -10.109375 3.515625 -9.765625 C 3.128906 -9.472656 2.707031 -9.039062 2.25 -8.46875 C 1.800781 -7.90625 1.515625 -7.335938 1.390625 -6.765625 C 1.273438 -6.191406 1.535156 -5.726562 2.171875 -5.375 C 2.890625 -5.050781 3.625 -4.972656 4.375 -5.140625 C 6.238281 -5.515625 7.96875 -6.222656 9.5625 -7.265625 C 9.707031 -7.335938 9.835938 -7.414062 9.953125 -7.5 C 10.128906 -7.632812 10.304688 -7.742188 10.484375 -7.828125 C 10.660156 -7.921875 10.863281 -7.984375 11.09375 -8.015625 Z M 11.09375 -8.015625 "/></g></g><g transform="translate(78.076254, 62.871114)"><g><path d="M 12.484375 -7.171875 C 12.304688 -7.003906 12.113281 -6.851562 11.90625 -6.71875 C 11.25 -6.3125 10.65625 -5.988281 10.125 -5.75 C 9.601562 -5.519531 8.984375 -5.28125 8.265625 -5.03125 C 7.191406 -4.707031 6.503906 -4.773438 6.203125 -5.234375 C 5.898438 -5.703125 5.851562 -6.347656 6.0625 -7.171875 C 6.34375 -8.335938 6.503906 -9.191406 6.546875 -9.734375 C 6.597656 -10.273438 6.421875 -10.460938 6.015625 -10.296875 C 5.617188 -10.128906 4.882812 -9.566406 3.8125 -8.609375 C 2.320312 -7.328125 1.050781 -5.863281 0 -4.21875 C -0.132812 -3.988281 -0.296875 -3.800781 -0.484375 -3.65625 C -0.679688 -3.519531 -0.925781 -3.453125 -1.21875 -3.453125 C -1.488281 -3.453125 -1.6875 -3.519531 -1.8125 -3.65625 C -1.9375 -3.800781 -1.941406 -4 -1.828125 -4.25 C -1.222656 -5.582031 -0.601562 -6.90625 0.03125 -8.21875 C 1.113281 -10.488281 2.1875 -12.753906 3.25 -15.015625 C 4.039062 -16.703125 4.816406 -18.394531 5.578125 -20.09375 C 6.054688 -21.082031 6.519531 -22.078125 6.96875 -23.078125 C 7.007812 -23.148438 7.054688 -23.234375 7.109375 -23.328125 C 7.148438 -23.441406 7.195312 -23.554688 7.25 -23.671875 C 7.3125 -23.785156 7.375 -23.910156 7.4375 -24.046875 C 7.5 -24.148438 7.613281 -24.238281 7.78125 -24.3125 C 7.957031 -24.382812 8.128906 -24.429688 8.296875 -24.453125 C 8.460938 -24.472656 8.59375 -24.460938 8.6875 -24.421875 C 8.820312 -24.328125 8.894531 -24.226562 8.90625 -24.125 C 8.925781 -24.03125 8.910156 -23.925781 8.859375 -23.8125 C 8.835938 -23.789062 8.828125 -23.753906 8.828125 -23.703125 C 8.617188 -23.097656 8.40625 -22.515625 8.1875 -21.953125 C 6.882812 -18.804688 5.460938 -15.710938 3.921875 -12.671875 C 3.804688 -12.460938 3.671875 -12.21875 3.515625 -11.9375 C 3.296875 -11.53125 3.085938 -11.128906 2.890625 -10.734375 C 2.691406 -10.335938 2.625 -10.070312 2.6875 -9.9375 C 2.757812 -9.800781 3.066406 -9.90625 3.609375 -10.25 C 3.773438 -10.351562 3.925781 -10.460938 4.0625 -10.578125 C 4.488281 -10.867188 4.914062 -11.140625 5.34375 -11.390625 C 5.707031 -11.640625 6.113281 -11.773438 6.5625 -11.796875 C 7.644531 -11.867188 8.25 -11.382812 8.375 -10.34375 C 8.425781 -9.914062 8.410156 -9.492188 8.328125 -9.078125 C 8.253906 -8.671875 8.160156 -8.269531 8.046875 -7.875 C 8.023438 -7.757812 8.003906 -7.644531 7.984375 -7.53125 C 7.796875 -6.832031 7.84375 -6.429688 8.125 -6.328125 C 8.40625 -6.234375 8.800781 -6.289062 9.3125 -6.5 C 9.820312 -6.71875 10.335938 -6.984375 10.859375 -7.296875 C 11.210938 -7.472656 11.523438 -7.628906 11.796875 -7.765625 C 12.078125 -7.898438 12.28125 -7.957031 12.40625 -7.9375 C 12.65625 -7.894531 12.769531 -7.789062 12.75 -7.625 C 12.726562 -7.46875 12.640625 -7.316406 12.484375 -7.171875 Z M 12.484375 -7.171875 "/></g></g><g transform="translate(89.814395, 62.871114)"><g><path d="M 8.765625 -5.90625 C 8.171875 -5.320312 7.476562 -4.820312 6.6875 -4.40625 C 5.894531 -3.988281 5.234375 -3.71875 4.703125 -3.59375 C 4.171875 -3.46875 3.625 -3.394531 3.0625 -3.375 C 2.15625 -3.332031 1.320312 -3.453125 0.5625 -3.734375 C -0.675781 -4.234375 -1.101562 -5.191406 -0.71875 -6.609375 C -0.363281 -7.828125 0.359375 -8.78125 1.453125 -9.46875 C 2.554688 -10.15625 3.691406 -10.488281 4.859375 -10.46875 C 4.859375 -10.46875 4.867188 -10.46875 4.890625 -10.46875 C 5.191406 -10.488281 5.472656 -10.46875 5.734375 -10.40625 C 6.179688 -10.25 6.46875 -9.984375 6.59375 -9.609375 C 6.71875 -9.242188 6.640625 -8.832031 6.359375 -8.375 C 5.703125 -7.382812 4.804688 -6.832031 3.671875 -6.71875 C 2.921875 -6.644531 2.195312 -6.679688 1.5 -6.828125 C 1.375 -6.847656 1.257812 -6.8125 1.15625 -6.71875 C 1.050781 -6.625 0.988281 -6.515625 0.96875 -6.390625 C 0.757812 -5.503906 1.03125 -4.9375 1.78125 -4.6875 C 2.707031 -4.375 3.664062 -4.375 4.65625 -4.6875 C 5.8125 -5.050781 6.90625 -5.726562 7.9375 -6.71875 C 8.96875 -7.71875 9.5625 -8.179688 9.71875 -8.109375 C 9.882812 -8.046875 9.9375 -7.851562 9.875 -7.53125 C 9.726562 -7.03125 9.359375 -6.488281 8.765625 -5.90625 Z M 2.21875 -8.375 C 2.15625 -8.3125 2.109375 -8.234375 2.078125 -8.140625 C 2.054688 -8.054688 2.09375 -7.976562 2.1875 -7.90625 C 2.539062 -7.695312 2.925781 -7.617188 3.34375 -7.671875 C 3.769531 -7.734375 4.128906 -7.894531 4.421875 -8.15625 C 4.710938 -8.414062 4.835938 -8.738281 4.796875 -9.125 C 4.765625 -9.257812 4.691406 -9.34375 4.578125 -9.375 C 4.472656 -9.40625 4.363281 -9.410156 4.25 -9.390625 C 3.488281 -9.265625 2.8125 -8.925781 2.21875 -8.375 Z M 5.46875 -14.171875 C 5.53125 -14.273438 5.628906 -14.34375 5.765625 -14.375 C 5.910156 -14.414062 6.050781 -14.4375 6.1875 -14.4375 C 6.226562 -14.40625 6.257812 -14.390625 6.28125 -14.390625 C 6.332031 -14.390625 6.382812 -14.378906 6.4375 -14.359375 C 6.78125 -14.304688 6.96875 -14.207031 7 -14.0625 C 7.039062 -13.925781 7.003906 -13.773438 6.890625 -13.609375 C 6.773438 -13.453125 6.648438 -13.3125 6.515625 -13.1875 C 6.179688 -12.820312 5.851562 -12.414062 5.53125 -11.96875 C 5.269531 -11.582031 5.03125 -11.273438 4.8125 -11.046875 C 4.59375 -10.828125 4.429688 -10.796875 4.328125 -10.953125 C 4.210938 -11.046875 4.148438 -11.148438 4.140625 -11.265625 C 4.128906 -11.390625 4.144531 -11.519531 4.1875 -11.65625 C 4.28125 -12.070312 4.425781 -12.457031 4.625 -12.8125 C 4.820312 -13.164062 5.035156 -13.515625 5.265625 -13.859375 C 5.335938 -13.953125 5.40625 -14.054688 5.46875 -14.171875 Z M 5.46875 -14.171875 "/></g></g></g></g></g><g transform="matrix(1, 0, 0, 1, 163, 197)"><g clip-path="url(#33338e14e0)"><g fill="#000000" fill-opacity="1"><g transform="translate(1.178279, 8.392131)"><g><path d="M 5.078125 0 L 4.34375 0 L 2.984375 -2.390625 C 2.972656 -2.390625 2.960938 -2.390625 2.953125 -2.390625 L 1.234375 -2.390625 L 1.234375 0 L 0.59375 0 L 0.59375 -6.3125 L 2.953125 -6.3125 C 3.347656 -6.3125 3.691406 -6.222656 3.984375 -6.046875 C 4.285156 -5.867188 4.519531 -5.628906 4.6875 -5.328125 C 4.851562 -5.035156 4.9375 -4.710938 4.9375 -4.359375 C 4.9375 -3.941406 4.816406 -3.566406 4.578125 -3.234375 C 4.347656 -2.898438 4.039062 -2.664062 3.65625 -2.53125 Z M 1.234375 -5.65625 L 1.234375 -3.046875 L 2.953125 -3.046875 C 3.222656 -3.046875 3.453125 -3.101562 3.640625 -3.21875 C 3.835938 -3.34375 3.988281 -3.503906 4.09375 -3.703125 C 4.195312 -3.898438 4.25 -4.117188 4.25 -4.359375 C 4.25 -4.585938 4.195312 -4.800781 4.09375 -5 C 3.988281 -5.195312 3.835938 -5.351562 3.640625 -5.46875 C 3.453125 -5.59375 3.222656 -5.65625 2.953125 -5.65625 Z M 1.234375 -5.65625 "/></g></g></g><g fill="#000000" fill-opacity="1"><g transform="translate(6.513453, 8.392131)"><g><path d="M 4.90625 0 L 4.234375 -1.828125 L 1.671875 -1.828125 L 0.984375 0 L 0.265625 0 L 2.65625 -6.3125 L 3.25 -6.3125 L 5.640625 0 Z M 1.921875 -2.484375 L 3.984375 -2.484375 L 2.953125 -5.28125 Z M 1.921875 -2.484375 "/></g></g></g><g fill="#000000" fill-opacity="1"><g transform="translate(12.416396, 8.392131)"><g><path d="M 2.53125 -6.3125 C 3.019531 -6.3125 3.457031 -6.226562 3.84375 -6.0625 C 4.238281 -5.894531 4.570312 -5.664062 4.84375 -5.375 C 5.125 -5.09375 5.335938 -4.757812 5.484375 -4.375 C 5.628906 -3.988281 5.703125 -3.578125 5.703125 -3.140625 C 5.703125 -2.710938 5.625 -2.304688 5.46875 -1.921875 C 5.320312 -1.546875 5.109375 -1.210938 4.828125 -0.921875 C 4.554688 -0.628906 4.222656 -0.398438 3.828125 -0.234375 C 3.441406 -0.078125 3.007812 0 2.53125 0 L 0.59375 0 L 0.59375 -6.3125 Z M 2.46875 -0.65625 C 3.007812 -0.65625 3.46875 -0.765625 3.84375 -0.984375 C 4.226562 -1.210938 4.519531 -1.515625 4.71875 -1.890625 C 4.914062 -2.273438 5.015625 -2.691406 5.015625 -3.140625 C 5.015625 -3.609375 4.910156 -4.03125 4.703125 -4.40625 C 4.503906 -4.789062 4.210938 -5.09375 3.828125 -5.3125 C 3.453125 -5.539062 3.003906 -5.65625 2.484375 -5.65625 L 1.234375 -5.65625 L 1.234375 -0.65625 C 1.359375 -0.65625 1.519531 -0.65625 1.71875 -0.65625 C 1.914062 -0.65625 2.164062 -0.65625 2.46875 -0.65625 Z M 2.46875 -0.65625 "/></g></g></g><g fill="#000000" fill-opacity="1"><g transform="translate(18.481547, 8.392131)"><g><path d="M 0.59375 -6.3125 L 1.234375 -6.3125 L 1.234375 0 L 0.59375 0 Z M 0.59375 -6.3125 "/></g></g></g><g fill="#000000" fill-opacity="1"><g transform="translate(20.301991, 8.392131)"><g><path d="M 3.46875 -6.359375 C 3.914062 -6.359375 4.320312 -6.273438 4.6875 -6.109375 C 5.0625 -5.941406 5.382812 -5.710938 5.65625 -5.421875 C 5.9375 -5.128906 6.148438 -4.785156 6.296875 -4.390625 C 6.453125 -4.003906 6.53125 -3.585938 6.53125 -3.140625 C 6.53125 -2.703125 6.453125 -2.285156 6.296875 -1.890625 C 6.148438 -1.503906 5.9375 -1.164062 5.65625 -0.875 C 5.382812 -0.582031 5.0625 -0.347656 4.6875 -0.171875 C 4.320312 -0.00390625 3.914062 0.078125 3.46875 0.078125 C 3.019531 0.078125 2.609375 -0.00390625 2.234375 -0.171875 C 1.867188 -0.347656 1.546875 -0.582031 1.265625 -0.875 C 0.992188 -1.164062 0.78125 -1.503906 0.625 -1.890625 C 0.476562 -2.285156 0.40625 -2.703125 0.40625 -3.140625 C 0.40625 -3.585938 0.476562 -4.003906 0.625 -4.390625 C 0.78125 -4.785156 0.992188 -5.128906 1.265625 -5.421875 C 1.546875 -5.710938 1.867188 -5.941406 2.234375 -6.109375 C 2.609375 -6.273438 3.019531 -6.359375 3.46875 -6.359375 Z M 3.46875 -0.5625 C 3.945312 -0.5625 4.363281 -0.675781 4.71875 -0.90625 C 5.070312 -1.144531 5.347656 -1.457031 5.546875 -1.84375 C 5.753906 -2.238281 5.859375 -2.671875 5.859375 -3.140625 C 5.859375 -3.617188 5.753906 -4.050781 5.546875 -4.4375 C 5.347656 -4.832031 5.070312 -5.144531 4.71875 -5.375 C 4.363281 -5.601562 3.945312 -5.71875 3.46875 -5.71875 C 3 -5.71875 2.582031 -5.601562 2.21875 -5.375 C 1.851562 -5.144531 1.570312 -4.832031 1.375 -4.4375 C 1.175781 -4.050781 1.078125 -3.617188 1.078125 -3.140625 C 1.078125 -2.671875 1.175781 -2.238281 1.375 -1.84375 C 1.570312 -1.457031 1.851562 -1.144531 2.21875 -0.90625 C 2.582031 -0.675781 3 -0.5625 3.46875 -0.5625 Z M 3.46875 -0.5625 "/></g></g></g><g fill="#000000" fill-opacity="1"><g transform="translate(27.232305, 8.392131)"><g><path d="M 1.1875 -0.65625 L 4.328125 -0.65625 L 4.328125 0 L 0.546875 0 L 0.546875 -6.3125 L 1.1875 -6.3125 Z M 1.1875 -0.65625 "/></g></g></g><g fill="#000000" fill-opacity="1"><g transform="translate(31.738367, 8.392131)"><g><path d="M 3.46875 -6.359375 C 3.914062 -6.359375 4.320312 -6.273438 4.6875 -6.109375 C 5.0625 -5.941406 5.382812 -5.710938 5.65625 -5.421875 C 5.9375 -5.128906 6.148438 -4.785156 6.296875 -4.390625 C 6.453125 -4.003906 6.53125 -3.585938 6.53125 -3.140625 C 6.53125 -2.703125 6.453125 -2.285156 6.296875 -1.890625 C 6.148438 -1.503906 5.9375 -1.164062 5.65625 -0.875 C 5.382812 -0.582031 5.0625 -0.347656 4.6875 -0.171875 C 4.320312 -0.00390625 3.914062 0.078125 3.46875 0.078125 C 3.019531 0.078125 2.609375 -0.00390625 2.234375 -0.171875 C 1.867188 -0.347656 1.546875 -0.582031 1.265625 -0.875 C 0.992188 -1.164062 0.78125 -1.503906 0.625 -1.890625 C 0.476562 -2.285156 0.40625 -2.703125 0.40625 -3.140625 C 0.40625 -3.585938 0.476562 -4.003906 0.625 -4.390625 C 0.78125 -4.785156 0.992188 -5.128906 1.265625 -5.421875 C 1.546875 -5.710938 1.867188 -5.941406 2.234375 -6.109375 C 2.609375 -6.273438 3.019531 -6.359375 3.46875 -6.359375 Z M 3.46875 -0.5625 C 3.945312 -0.5625 4.363281 -0.675781 4.71875 -0.90625 C 5.070312 -1.144531 5.347656 -1.457031 5.546875 -1.84375 C 5.753906 -2.238281 5.859375 -2.671875 5.859375 -3.140625 C 5.859375 -3.617188 5.753906 -4.050781 5.546875 -4.4375 C 5.347656 -4.832031 5.070312 -5.144531 4.71875 -5.375 C 4.363281 -5.601562 3.945312 -5.71875 3.46875 -5.71875 C 3 -5.71875 2.582031 -5.601562 2.21875 -5.375 C 1.851562 -5.144531 1.570312 -4.832031 1.375 -4.4375 C 1.175781 -4.050781 1.078125 -3.617188 1.078125 -3.140625 C 1.078125 -2.671875 1.175781 -2.238281 1.375 -1.84375 C 1.570312 -1.457031 1.851562 -1.144531 2.21875 -0.90625 C 2.582031 -0.675781 3 -0.5625 3.46875 -0.5625 Z M 3.46875 -0.5625 "/></g></g></g><g fill="#000000" fill-opacity="1"><g transform="translate(38.668681, 8.392131)"><g><path d="M 6.046875 -3.234375 L 6.046875 -1.375 C 5.773438 -0.9375 5.410156 -0.582031 4.953125 -0.3125 C 4.492188 -0.0507812 3.988281 0.078125 3.4375 0.078125 C 2.988281 0.078125 2.570312 -0.00390625 2.1875 -0.171875 C 1.8125 -0.347656 1.484375 -0.582031 1.203125 -0.875 C 0.921875 -1.164062 0.703125 -1.503906 0.546875 -1.890625 C 0.390625 -2.285156 0.3125 -2.703125 0.3125 -3.140625 C 0.3125 -3.585938 0.390625 -4.003906 0.546875 -4.390625 C 0.703125 -4.785156 0.921875 -5.128906 1.203125 -5.421875 C 1.484375 -5.710938 1.8125 -5.941406 2.1875 -6.109375 C 2.570312 -6.273438 2.988281 -6.359375 3.4375 -6.359375 C 3.988281 -6.359375 4.488281 -6.226562 4.9375 -5.96875 C 5.394531 -5.707031 5.765625 -5.359375 6.046875 -4.921875 L 5.46875 -4.640625 C 5.238281 -4.960938 4.945312 -5.222656 4.59375 -5.421875 C 4.25 -5.617188 3.863281 -5.71875 3.4375 -5.71875 C 2.957031 -5.71875 2.53125 -5.601562 2.15625 -5.375 C 1.789062 -5.144531 1.503906 -4.832031 1.296875 -4.4375 C 1.085938 -4.050781 0.984375 -3.617188 0.984375 -3.140625 C 0.984375 -2.671875 1.085938 -2.238281 1.296875 -1.84375 C 1.503906 -1.457031 1.789062 -1.144531 2.15625 -0.90625 C 2.53125 -0.675781 2.957031 -0.5625 3.4375 -0.5625 C 3.832031 -0.5625 4.203125 -0.648438 4.546875 -0.828125 C 4.898438 -1.003906 5.179688 -1.234375 5.390625 -1.515625 L 5.390625 -2.59375 L 3.421875 -2.59375 L 3.421875 -3.234375 Z M 6.046875 -3.234375 "/></g></g></g><g clip-path="url(#447fbec693)"><g fill="#000000" fill-opacity="1"><g transform="translate(45.112348, 8.392131)"><g><path d="M 0.59375 -6.3125 L 1.234375 -6.3125 L 1.234375 0 L 0.59375 0 Z M 1.375 -8.109375 L 2.0625 -8.109375 L 1.15625 -6.875 L 0.671875 -6.875 Z M 1.375 -8.109375 "/></g></g></g></g><g fill="#000000" fill-opacity="1"><g transform="translate(46.932792, 8.392131)"><g><path d="M 4.90625 0 L 4.234375 -1.828125 L 1.671875 -1.828125 L 0.984375 0 L 0.265625 0 L 2.65625 -6.3125 L 3.25 -6.3125 L 5.640625 0 Z M 1.921875 -2.484375 L 3.984375 -2.484375 L 2.953125 -5.28125 Z M 1.921875 -2.484375 "/></g></g></g><g fill="#000000" fill-opacity="1"><g transform="translate(52.835735, 8.392131)"><g/></g></g><g fill="#000000" fill-opacity="1"><g transform="translate(55.359134, 8.392131)"><g><path d="M 4.90625 0 L 4.234375 -1.828125 L 1.671875 -1.828125 L 0.984375 0 L 0.265625 0 L 2.65625 -6.3125 L 3.25 -6.3125 L 5.640625 0 Z M 1.921875 -2.484375 L 3.984375 -2.484375 L 2.953125 -5.28125 Z M 1.921875 -2.484375 "/></g></g></g><g fill="#000000" fill-opacity="1"><g transform="translate(61.262076, 8.392131)"><g><path d="M 4.703125 -6.3125 L 5.421875 -6.3125 L 3.015625 0 L 2.421875 0 L 0 -6.3125 L 0.734375 -6.3125 L 2.71875 -1.03125 Z M 4.703125 -6.3125 "/></g></g></g><g fill="#000000" fill-opacity="1"><g transform="translate(66.67836, 8.392131)"><g><path d="M 4.90625 0 L 4.234375 -1.828125 L 1.671875 -1.828125 L 0.984375 0 L 0.265625 0 L 2.65625 -6.3125 L 3.25 -6.3125 L 5.640625 0 Z M 1.921875 -2.484375 L 3.984375 -2.484375 L 2.953125 -5.28125 Z M 1.921875 -2.484375 "/></g></g></g><g fill="#000000" fill-opacity="1"><g transform="translate(72.581303, 8.392131)"><g><path d="M 4.734375 -6.3125 L 5.375 -6.3125 L 5.375 0 L 4.78125 0 L 1.234375 -5.125 L 1.234375 0 L 0.59375 0 L 0.59375 -6.3125 L 1.1875 -6.3125 L 4.734375 -1.203125 Z M 4.734375 -6.3125 "/></g></g></g><g fill="#000000" fill-opacity="1"><g transform="translate(78.54733, 8.392131)"><g><path d="M 1.0625 -0.65625 L 5.09375 -0.65625 L 5.09375 0 L 0.1875 0 L 0.1875 -0.65625 L 4.140625 -5.65625 L 0.453125 -5.65625 L 0.453125 -6.3125 L 4.96875 -6.3125 L 4.96875 -5.65625 Z M 1.0625 -0.65625 "/></g></g></g><g fill="#000000" fill-opacity="1"><g transform="translate(83.81942, 8.392131)"><g><path d="M 4.90625 0 L 4.234375 -1.828125 L 1.671875 -1.828125 L 0.984375 0 L 0.265625 0 L 2.65625 -6.3125 L 3.25 -6.3125 L 5.640625 0 Z M 1.921875 -2.484375 L 3.984375 -2.484375 L 2.953125 -5.28125 Z M 1.921875 -2.484375 "/></g></g></g><g fill="#000000" fill-opacity="1"><g transform="translate(89.722363, 8.392131)"><g><path d="M 2.53125 -6.3125 C 3.019531 -6.3125 3.457031 -6.226562 3.84375 -6.0625 C 4.238281 -5.894531 4.570312 -5.664062 4.84375 -5.375 C 5.125 -5.09375 5.335938 -4.757812 5.484375 -4.375 C 5.628906 -3.988281 5.703125 -3.578125 5.703125 -3.140625 C 5.703125 -2.710938 5.625 -2.304688 5.46875 -1.921875 C 5.320312 -1.546875 5.109375 -1.210938 4.828125 -0.921875 C 4.554688 -0.628906 4.222656 -0.398438 3.828125 -0.234375 C 3.441406 -0.078125 3.007812 0 2.53125 0 L 0.59375 0 L 0.59375 -6.3125 Z M 2.46875 -0.65625 C 3.007812 -0.65625 3.46875 -0.765625 3.84375 -0.984375 C 4.226562 -1.210938 4.519531 -1.515625 4.71875 -1.890625 C 4.914062 -2.273438 5.015625 -2.691406 5.015625 -3.140625 C 5.015625 -3.609375 4.910156 -4.03125 4.703125 -4.40625 C 4.503906 -4.789062 4.210938 -5.09375 3.828125 -5.3125 C 3.453125 -5.539062 3.003906 -5.65625 2.484375 -5.65625 L 1.234375 -5.65625 L 1.234375 -0.65625 C 1.359375 -0.65625 1.519531 -0.65625 1.71875 -0.65625 C 1.914062 -0.65625 2.164062 -0.65625 2.46875 -0.65625 Z M 2.46875 -0.65625 "/></g></g></g><g fill="#000000" fill-opacity="1"><g transform="translate(95.787514, 8.392131)"><g><path d="M 4.90625 0 L 4.234375 -1.828125 L 1.671875 -1.828125 L 0.984375 0 L 0.265625 0 L 2.65625 -6.3125 L 3.25 -6.3125 L 5.640625 0 Z M 1.921875 -2.484375 L 3.984375 -2.484375 L 2.953125 -5.28125 Z M 1.921875 -2.484375 "/></g></g></g><g fill="#000000" fill-opacity="1"><g transform="translate(101.690457, 8.392131)"><g/></g></g><g fill="#000000" fill-opacity="1"><g transform="translate(104.213855, 8.392131)"><g><path d="M 2.953125 -6.3125 C 3.347656 -6.3125 3.691406 -6.222656 3.984375 -6.046875 C 4.285156 -5.867188 4.519531 -5.628906 4.6875 -5.328125 C 4.851562 -5.035156 4.9375 -4.710938 4.9375 -4.359375 C 4.9375 -4.003906 4.847656 -3.675781 4.671875 -3.375 C 4.503906 -3.082031 4.269531 -2.84375 3.96875 -2.65625 C 3.675781 -2.476562 3.335938 -2.390625 2.953125 -2.390625 L 1.25 -2.390625 L 1.25 0 L 0.59375 0 L 0.59375 -6.3125 Z M 2.953125 -3.046875 C 3.222656 -3.046875 3.453125 -3.101562 3.640625 -3.21875 C 3.835938 -3.34375 3.988281 -3.503906 4.09375 -3.703125 C 4.195312 -3.898438 4.25 -4.117188 4.25 -4.359375 C 4.25 -4.585938 4.195312 -4.800781 4.09375 -5 C 3.988281 -5.195312 3.835938 -5.351562 3.640625 -5.46875 C 3.453125 -5.59375 3.222656 -5.65625 2.953125 -5.65625 L 1.25 -5.65625 L 1.25 -3.046875 Z M 2.953125 -3.046875 "/></g></g></g><g fill="#000000" fill-opacity="1"><g transform="translate(109.503971, 8.392131)"><g><path d="M 4.90625 0 L 4.234375 -1.828125 L 1.671875 -1.828125 L 0.984375 0 L 0.265625 0 L 2.65625 -6.3125 L 3.25 -6.3125 L 5.640625 0 Z M 1.921875 -2.484375 L 3.984375 -2.484375 L 2.953125 -5.28125 Z M 1.921875 -2.484375 "/></g></g></g><g fill="#000000" fill-opacity="1"><g transform="translate(115.406914, 8.392131)"><g><path d="M 5.078125 0 L 4.34375 0 L 2.984375 -2.390625 C 2.972656 -2.390625 2.960938 -2.390625 2.953125 -2.390625 L 1.234375 -2.390625 L 1.234375 0 L 0.59375 0 L 0.59375 -6.3125 L 2.953125 -6.3125 C 3.347656 -6.3125 3.691406 -6.222656 3.984375 -6.046875 C 4.285156 -5.867188 4.519531 -5.628906 4.6875 -5.328125 C 4.851562 -5.035156 4.9375 -4.710938 4.9375 -4.359375 C 4.9375 -3.941406 4.816406 -3.566406 4.578125 -3.234375 C 4.347656 -2.898438 4.039062 -2.664062 3.65625 -2.53125 Z M 1.234375 -5.65625 L 1.234375 -3.046875 L 2.953125 -3.046875 C 3.222656 -3.046875 3.453125 -3.101562 3.640625 -3.21875 C 3.835938 -3.34375 3.988281 -3.503906 4.09375 -3.703125 C 4.195312 -3.898438 4.25 -4.117188 4.25 -4.359375 C 4.25 -4.585938 4.195312 -4.800781 4.09375 -5 C 3.988281 -5.195312 3.835938 -5.351562 3.640625 -5.46875 C 3.453125 -5.59375 3.222656 -5.65625 2.953125 -5.65625 Z M 1.234375 -5.65625 "/></g></g></g><g fill="#000000" fill-opacity="1"><g transform="translate(120.742088, 8.392131)"><g><path d="M 4.90625 0 L 4.234375 -1.828125 L 1.671875 -1.828125 L 0.984375 0 L 0.265625 0 L 2.65625 -6.3125 L 3.25 -6.3125 L 5.640625 0 Z M 1.921875 -2.484375 L 3.984375 -2.484375 L 2.953125 -5.28125 Z M 1.921875 -2.484375 "/></g></g></g><g fill="#000000" fill-opacity="1"><g transform="translate(126.645031, 8.392131)"><g/></g></g><g fill="#000000" fill-opacity="1"><g transform="translate(129.16843, 8.392131)"><g><path d="M 1.1875 -0.65625 L 4.328125 -0.65625 L 4.328125 0 L 0.546875 0 L 0.546875 -6.3125 L 1.1875 -6.3125 Z M 1.1875 -0.65625 "/></g></g></g><g fill="#000000" fill-opacity="1"><g transform="translate(133.674492, 8.392131)"><g><path d="M 4.90625 0 L 4.234375 -1.828125 L 1.671875 -1.828125 L 0.984375 0 L 0.265625 0 L 2.65625 -6.3125 L 3.25 -6.3125 L 5.640625 0 Z M 1.921875 -2.484375 L 3.984375 -2.484375 L 2.953125 -5.28125 Z M 1.921875 -2.484375 "/></g></g></g><g fill="#000000" fill-opacity="1"><g transform="translate(139.577435, 8.392131)"><g/></g></g><g fill="#000000" fill-opacity="1"><g transform="translate(142.100834, 8.392131)"><g><path d="M 6.171875 -6.3125 L 6.78125 -6.3125 L 6.78125 0 L 6.125 0 L 6.125 -5.0625 L 3.890625 -1.578125 L 3.453125 -1.578125 L 1.25 -5.0625 L 1.25 0 L 0.59375 0 L 0.59375 -6.3125 L 1.1875 -6.3125 L 3.671875 -2.375 Z M 6.171875 -6.3125 "/></g></g></g><g fill="#000000" fill-opacity="1"><g transform="translate(149.46373, 8.392131)"><g><path d="M 4.578125 -6.3125 L 5.234375 -6.3125 C 5.234375 -6.3125 5.234375 -6.222656 5.234375 -6.046875 C 5.234375 -5.867188 5.234375 -5.640625 5.234375 -5.359375 C 5.234375 -5.078125 5.234375 -4.765625 5.234375 -4.421875 C 5.234375 -4.085938 5.234375 -3.753906 5.234375 -3.421875 C 5.234375 -3.097656 5.234375 -2.800781 5.234375 -2.53125 C 5.234375 -1.9375 5.128906 -1.445312 4.921875 -1.0625 C 4.710938 -0.675781 4.429688 -0.390625 4.078125 -0.203125 C 3.734375 -0.015625 3.34375 0.078125 2.90625 0.078125 C 2.476562 0.078125 2.082031 -0.0078125 1.71875 -0.1875 C 1.363281 -0.375 1.078125 -0.65625 0.859375 -1.03125 C 0.648438 -1.414062 0.546875 -1.90625 0.546875 -2.5 C 0.546875 -2.757812 0.546875 -3.054688 0.546875 -3.390625 C 0.546875 -3.722656 0.546875 -4.054688 0.546875 -4.390625 C 0.546875 -4.734375 0.546875 -5.050781 0.546875 -5.34375 C 0.546875 -5.632812 0.546875 -5.867188 0.546875 -6.046875 C 0.546875 -6.222656 0.546875 -6.3125 0.546875 -6.3125 L 1.1875 -6.3125 C 1.1875 -6.3125 1.1875 -6.238281 1.1875 -6.09375 C 1.1875 -5.957031 1.1875 -5.769531 1.1875 -5.53125 C 1.1875 -5.300781 1.1875 -5.046875 1.1875 -4.765625 C 1.1875 -4.484375 1.1875 -4.195312 1.1875 -3.90625 C 1.1875 -3.625 1.1875 -3.359375 1.1875 -3.109375 C 1.1875 -2.859375 1.1875 -2.648438 1.1875 -2.484375 C 1.1875 -2.054688 1.265625 -1.703125 1.421875 -1.421875 C 1.578125 -1.140625 1.785156 -0.925781 2.046875 -0.78125 C 2.304688 -0.644531 2.59375 -0.578125 2.90625 -0.578125 C 3.21875 -0.578125 3.5 -0.648438 3.75 -0.796875 C 4.007812 -0.941406 4.210938 -1.15625 4.359375 -1.4375 C 4.503906 -1.71875 4.578125 -2.066406 4.578125 -2.484375 C 4.578125 -2.710938 4.578125 -2.988281 4.578125 -3.3125 C 4.578125 -3.632812 4.578125 -3.96875 4.578125 -4.3125 C 4.578125 -4.664062 4.578125 -4.992188 4.578125 -5.296875 C 4.578125 -5.597656 4.578125 -5.84375 4.578125 -6.03125 C 4.578125 -6.21875 4.578125 -6.3125 4.578125 -6.3125 Z M 4.578125 -6.3125 "/></g></g></g><g fill="#000000" fill-opacity="1"><g transform="translate(155.231486, 8.392131)"><g><path d="M 3.125 -6.3125 C 3.125 -6.3125 3.125 -6.222656 3.125 -6.046875 C 3.125 -5.867188 3.125 -5.632812 3.125 -5.34375 C 3.125 -5.0625 3.125 -4.75 3.125 -4.40625 C 3.125 -4.0625 3.125 -3.710938 3.125 -3.359375 C 3.125 -3.015625 3.125 -2.691406 3.125 -2.390625 C 3.125 -2.097656 3.125 -1.863281 3.125 -1.6875 C 3.125 -1.132812 3 -0.703125 2.75 -0.390625 C 2.5 -0.078125 2.125 0.078125 1.625 0.078125 C 1.382812 0.078125 1.164062 0.0351562 0.96875 -0.046875 C 0.769531 -0.128906 0.601562 -0.222656 0.46875 -0.328125 C 0.332031 -0.441406 0.238281 -0.535156 0.1875 -0.609375 L 0.671875 -0.984375 C 0.753906 -0.890625 0.875 -0.796875 1.03125 -0.703125 C 1.1875 -0.617188 1.378906 -0.578125 1.609375 -0.578125 C 1.867188 -0.578125 2.078125 -0.660156 2.234375 -0.828125 C 2.390625 -1.003906 2.46875 -1.285156 2.46875 -1.671875 C 2.46875 -1.816406 2.46875 -2.03125 2.46875 -2.3125 C 2.46875 -2.59375 2.46875 -2.90625 2.46875 -3.25 C 2.46875 -3.601562 2.46875 -3.957031 2.46875 -4.3125 C 2.46875 -4.664062 2.46875 -4.992188 2.46875 -5.296875 C 2.46875 -5.609375 2.46875 -5.851562 2.46875 -6.03125 C 2.46875 -6.21875 2.46875 -6.3125 2.46875 -6.3125 Z M 3.125 -6.3125 "/></g></g></g><g fill="#000000" fill-opacity="1"><g transform="translate(158.899417, 8.392131)"><g><path d="M 1.1875 -0.65625 L 4.734375 -0.65625 L 4.734375 0 L 0.546875 0 L 0.546875 -6.3125 L 4.671875 -6.3125 L 4.671875 -5.65625 L 1.1875 -5.65625 L 1.1875 -3.484375 L 4.40625 -3.484375 L 4.40625 -2.828125 L 1.1875 -2.828125 Z M 1.1875 -0.65625 "/></g></g></g><g fill="#000000" fill-opacity="1"><g transform="translate(164.081391, 8.392131)"><g><path d="M 5.078125 0 L 4.34375 0 L 2.984375 -2.390625 C 2.972656 -2.390625 2.960938 -2.390625 2.953125 -2.390625 L 1.234375 -2.390625 L 1.234375 0 L 0.59375 0 L 0.59375 -6.3125 L 2.953125 -6.3125 C 3.347656 -6.3125 3.691406 -6.222656 3.984375 -6.046875 C 4.285156 -5.867188 4.519531 -5.628906 4.6875 -5.328125 C 4.851562 -5.035156 4.9375 -4.710938 4.9375 -4.359375 C 4.9375 -3.941406 4.816406 -3.566406 4.578125 -3.234375 C 4.347656 -2.898438 4.039062 -2.664062 3.65625 -2.53125 Z M 1.234375 -5.65625 L 1.234375 -3.046875 L 2.953125 -3.046875 C 3.222656 -3.046875 3.453125 -3.101562 3.640625 -3.21875 C 3.835938 -3.34375 3.988281 -3.503906 4.09375 -3.703125 C 4.195312 -3.898438 4.25 -4.117188 4.25 -4.359375 C 4.25 -4.585938 4.195312 -4.800781 4.09375 -5 C 3.988281 -5.195312 3.835938 -5.351562 3.640625 -5.46875 C 3.453125 -5.59375 3.222656 -5.65625 2.953125 -5.65625 Z M 1.234375 -5.65625 "/></g></g></g></g></g></svg>